# xmcd
#
# Track frame offsets: 
#        150
#        18001
#        34258
#        49582
#        67726
#        88177
#        104379
#        123161
#        141682
#        164574
#        190322
#        204212
#
# Disc length: 3060 seconds
#
# Revision: 0
# Processed by: cddbd v1.5.2PL0 Copyright (c) Steve Scherf et al.
# Submitted via: ExactAudioCopy v1.0b4
#
DISCID=a10bf20c
DTITLE=Michael Burks - I'm A Bluesman
DYEAR=2016
DGENRE=Blues
TTITLE0=What Are You Doin' To Me
TTITLE1=Home Of The Blues
TTITLE2=Love Disease
TTITLE3=Sara Smile
TTITLE4=Broken Wing Woman
TTITLE5=I Didn't Take Your Woman
TTITLE6=You Ain't Slick
TTITLE7=Blues Will Never Die
TTITLE8=My Little Girl
TTITLE9=Game Two Can Play
TTITLE10=That's What I Am
TTITLE11=Raised Up In Arkansas
EXTD=
EXTT0=
EXTT1=
EXTT2=
EXTT3=
EXTT4=
EXTT5=
EXTT6=
EXTT7=
EXTT8=
EXTT9=
EXTT10=
EXTT11=
PLAYORDER=
